{
  "accessors": [
    {
      "bufferView": 3,
      "componentType": 5126,
      "count": 2200,
      "max": [
        1.1074349880218506,
        4.551974296569824,
        0.7494885921478271
      ],
      "min": [
        -1.1074349880218506,
        0.02947854995727539,
        -0.6527000665664673
      ],
      "type": "VEC3"
    },
    {
      "bufferView": 3,
      "byteOffset": 26400,
      "componentType": 5126,
      "count": 2200,
      "max": [
        1.0,
        0.9996622800827026,
        0.9994572401046753
      ],
      "min": [
        -1.0,
        -0.9999992847442627,
        -0.9999385476112366
      ],
      "type": "VEC3"
    },
    {
      "bufferView": 2,
      "componentType": 5126,
      "count": 2200,
      "max": [
        0.9997029900550842,
        0.9909325838088989
      ],
      "min": [
        0.011283673346042633,
        0.0002969962952192873
      ],
      "type": "VEC2"
    },
    {
      "bufferView": 1,
      "componentType": 5125,
      "count": 3420,
      "type": "SCALAR"
    },
    {
      "bufferView": 3,
      "byteOffset": 52800,
      "componentType": 5126,
      "count": 1100,
      "max": [
        3.5949718952178955,
        3.1975536346435547,
        0.6398754715919495
      ],
      "min": [
        -3.5949718952178955,
        2.478024959564209,
        -1.051449179649353
      ],
      "type": "VEC3"
    },
    {
      "bufferView": 3,
      "byteOffset": 66000,
      "componentType": 5126,
      "count": 1100,
      "max": [
        1.0,
        0.9984976649284363,
        0.9802021384239197
      ],
      "min": [
        -1.0,
        -0.9996316432952881,
        -0.9994572401046753
      ],
      "type": "VEC3"
    },
    {
      "bufferView": 2,
      "byteOffset": 17600,
      "componentType": 5126,
      "count": 1100,
      "max": [
        0.9997029900550842,
        0.9631423950195313
      ],
      "min": [
        0.0002969962952192873,
        0.0002969962952192873
      ],
      "type": "VEC2"
    },
    {
      "bufferView": 1,
      "byteOffset": 13680,
      "componentType": 5125,
      "count": 1596,
      "type": "SCALAR"
    },
    {
      "bufferView": 3,
      "byteOffset": 79200,
      "componentType": 5126,
      "count": 192,
      "max": [
        0.3660873770713806,
        3.979235887527466,
        0.5640213489532471
      ],
      "min": [
        -0.3660873770713806,
        3.720363140106201,
        0.25668925046920776
      ],
      "type": "VEC3"
    },
    {
      "bufferView": 3,
      "byteOffset": 81504,
      "componentType": 5126,
      "count": 192,
      "max": [
        0.9178950786590576,
        0.9427318572998047,
        0.9056136012077332
      ],
      "min": [
        -0.9178951978683472,
        -0.6202618479728699,
        -0.9396326541900635
      ],
      "type": "VEC3"
    },
    {
      "bufferView": 2,
      "byteOffset": 26400,
      "componentType": 5126,
      "count": 192,
      "max": [
        0.8750001192092896,
        1.0000001192092896
      ],
      "min": [
        0.1250000149011612,
        0.0
      ],
      "type": "VEC2"
    },
    {
      "bufferView": 1,
      "byteOffset": 20064,
      "componentType": 5125,
      "count": 288,
      "type": "SCALAR"
    },
    {
      "bufferView": 3,
      "byteOffset": 83808,
      "componentType": 5126,
      "count": 224,
      "max": [
        0.34462040662765503,
        3.935749053955078,
        0.5244957208633423
      ],
      "min": [
        -0.34462040662765503,
        3.6282835006713867,
        0.2462671399116516
      ],
      "type": "VEC3"
    },
    {
      "bufferView": 3,
      "byteOffset": 86496,
      "componentType": 5126,
      "count": 224,
      "max": [
        0.9014766216278076,
        0.9014778733253479,
        0.9356591105461121
      ],
      "min": [
        -0.9014766812324524,
        -0.9014769792556763,
        -0.9014764428138733
      ],
      "type": "VEC3"
    },
    {
      "bufferView": 2,
      "byteOffset": 27936,
      "componentType": 5126,
      "count": 224,
      "max": [
        0.8750001192092896,
        0.7916668653488159
      ],
      "min": [
        0.1250000149011612,
        0.0
      ],
      "type": "VEC2"
    },
    {
      "bufferView": 1,
      "byteOffset": 21216,
      "componentType": 5125,
      "count": 336,
      "type": "SCALAR"
    },
    {
      "bufferView": 5,
      "componentType": 5126,
      "count": 35,
      "max": [
        100.0,
        0.9999857544898987,
        0.2650667726993561,
        0.0,
        0.9999957084655762,
        100.0,
        1.0000001192092896,
        0.0,
        0.9774285554885864,
        0.9993979930877686,
        100.0,
        0.0,
        2.9994232654571533,
        1.0743026733398438,
        0.010646605864167213,
        1.0
      ],
      "min": [
        -0.9999336004257202,
        -0.9999857544898987,
        -0.2650667726993561,
        0.0,
        -0.9999957084655762,
        -0.9989354610443115,
        -0.00012411491479724646,
        0.0,
        -0.9774285554885864,
        -0.4207319915294647,
        -0.9716333150863647,
        0.0,
        -2.9994232654571533,
        -3.0999999046325684,
        -3.444486618041992,
        1.0
      ],
      "type": "MAT4"
    },
    {
      "bufferView": 0,
      "componentType": 5123,
      "count": 2200,
      "type": "VEC4"
    },
    {
      "bufferView": 4,
      "componentType": 5126,
      "count": 2200,
      "max": [
        1.0,
        0.5,
        0.3333333432674408,
        0.25
      ],
      "min": [
        0.25,
        0.0,
        0.0,
        0.0
      ],
      "type": "VEC4"
    },
    {
      "bufferView": 0,
      "byteOffset": 17600,
      "componentType": 5123,
      "count": 1100,
      "type": "VEC4"
    },
    {
      "bufferView": 4,
      "byteOffset": 35200,
      "componentType": 5126,
      "count": 1100,
      "max": [
        1.0,
        0.5,
        0.0,
        0.0
      ],
      "min": [
        0.5,
        0.0,
        0.0,
        0.0
      ],
      "type": "VEC4"
    },
    {
      "bufferView": 0,
      "byteOffset": 26400,
      "componentType": 5123,
      "count": 192,
      "type": "VEC4"
    },
    {
      "bufferView": 4,
      "byteOffset": 52800,
      "componentType": 5126,
      "count": 192,
      "max": [
        1.0,
        0.0,
        0.0,
        0.0
      ],
      "min": [
        1.0,
        0.0,
        0.0,
        0.0
      ],
      "type": "VEC4"
    },
    {
      "bufferView": 0,
      "byteOffset": 27936,
      "componentType": 5123,
      "count": 224,
      "type": "VEC4"
    },
    {
      "bufferView": 4,
      "byteOffset": 55872,
      "componentType": 5126,
      "count": 224,
      "max": [
        1.0,
        0.0,
        0.0,
        0.0
      ],
      "min": [
        1.0,
        0.0,
        0.0,
        0.0
      ],
      "type": "VEC4"
    },
    {
      "bufferView": 6,
      "componentType": 5126,
      "count": 67,
      "max": [
        4.583333492279053
      ],
      "min": [
        2.9166667461395264
      ],
      "type": "SCALAR"
    },
    {
      "bufferView": 7,
      "componentType": 5126,
      "count": 67,
      "max": [
        1.1102230246251565e-16,
        0.5,
        0.0
      ],
      "min": [
        -1.1102230246251565e-16,
        0.5,
        0.0
      ],
      "type": "VEC3"
    },
    {
      "bufferView": 6,
      "byteOffset": 268,
      "componentType": 5126,
      "count": 80,
      "max": [
        4.583333492279053
      ],
      "min": [
        2.9166667461395264
      ],
      "type": "SCALAR"
    },
    {
      "bufferView": 8,
      "componentType": 5126,
      "count": 80,
      "max": [
        0.0,
        8.726214486313832e-18,
        2.7375398443015867e-17,
        1.0
      ],
      "min": [
        -0.2095966786146164,
        -4.7255488362562135e-18,
        -4.0708598659666237e-17,
        0.9777879118919373
      ],
      "type": "VEC4"
    },
    {
      "bufferView": 6,
      "byteOffset": 588,
      "componentType": 5126,
      "count": 80,
      "max": [
        4.583333492279053
      ],
      "min": [
        2.9166667461395264
      ],
      "type": "SCALAR"
    },
    {
      "bufferView": 8,
      "byteOffset": 1280,
      "componentType": 5126,
      "count": 80,
      "max": [
        -0.1306302547454834,
        0.031180892139673233,
        0.11113811284303665,
        0.9899435043334961
      ],
      "min": [
        -0.156328946352005,
        -0.053990814834833145,
        -0.17942830920219421,
        0.9697688817977905
      ],
      "type": "VEC4"
    },
    {
      "bufferView": 6,
      "byteOffset": 908,
      "componentType": 5126,
      "count": 80,
      "max": [
        4.583333492279053
      ],
      "min": [
        2.9166667461395264
      ],
      "type": "SCALAR"
    },
    {
      "bufferView": 8,
      "byteOffset": 2560,
      "componentType": 5126,
      "count": 80,
      "max": [
        0.20431427657604218,
        0.7958124279975891,
        0.38166362047195435,
        0.701501727104187
      ],
      "min": [
        -0.3449886441230774,
        -0.797504723072052,
        -0.23015724122524261,
        -0.4741515517234802
      ],
      "type": "VEC4"
    },
    {
      "bufferView": 6,
      "byteOffset": 1228,
      "componentType": 5126,
      "count": 80,
      "max": [
        4.583333492279053
      ],
      "min": [
        2.9166667461395264
      ],
      "type": "SCALAR"
    },
    {
      "bufferView": 8,
      "byteOffset": 3840,
      "componentType": 5126,
      "count": 80,
      "max": [
        0.30986931920051575,
        0.24368084967136383,
        0.3111996054649353,
        0.9549993872642517
      ],
      "min": [
        -0.1439693123102188,
        -0.6603682637214661,
        -0.5185055136680603,
        0.6349935531616211
      ],
      "type": "VEC4"
    },
    {
      "bufferView": 6,
      "byteOffset": 1548,
      "componentType": 5126,
      "count": 5,
      "max": [
        4.583333492279053
      ],
      "min": [
        2.9166667461395264
      ],
      "type": "SCALAR"
    },
    {
      "bufferView": 7,
      "byteOffset": 804,
      "componentType": 5126,
      "count": 5,
      "max": [
        -1.4901160305669237e-08,
        1.1254017353057861,
        -7.450580596923828e-08
      ],
      "min": [
        -1.4901161193847656e-08,
        1.1254017353057861,
        -7.450580596923828e-08
      ],
      "type": "VEC3"
    },
    {
      "bufferView": 6,
      "byteOffset": 1568,
      "componentType": 5126,
      "count": 80,
      "max": [
        4.583333492279053
      ],
      "min": [
        2.9166667461395264
      ],
      "type": "SCALAR"
    },
    {
      "bufferView": 8,
      "byteOffset": 5120,
      "componentType": 5126,
      "count": 80,
      "max": [
        -0.1306302547454834,
        0.05399085953831673,
        0.17942839860916138,
        0.9899435043334961
      ],
      "min": [
        -0.15632891654968262,
        -0.031180894002318382,
        -0.11113813519477844,
        0.9697688817977905
      ],
      "type": "VEC4"
    },
    {
      "bufferView": 6,
      "byteOffset": 1888,
      "componentType": 5126,
      "count": 80,
      "max": [
        4.583333492279053
      ],
      "min": [
        2.9166667461395264
      ],
      "type": "SCALAR"
    },
    {
      "bufferView": 8,
      "byteOffset": 6400,
      "componentType": 5126,
      "count": 80,
      "max": [
        0.34498855471611023,
        0.797504723072052,
        0.38166344165802,
        0.7015017867088318
      ],
      "min": [
        -0.09058913588523865,
        0.7013242244720459,
        -0.08850559592247009,
        0.3691284954547882
      ],
      "type": "VEC4"
    },
    {
      "bufferView": 6,
      "byteOffset": 2208,
      "componentType": 5126,
      "count": 80,
      "max": [
        4.583333492279053
      ],
      "min": [
        2.9166667461395264
      ],
      "type": "SCALAR"
    },
    {
      "bufferView": 8,
      "byteOffset": 7680,
      "componentType": 5126,
      "count": 80,
      "max": [
        0.3098714351654053,
        0.660368025302887,
        0.520344614982605,
        0.9549994468688965
      ],
      "min": [
        -0.14396922290325165,
        -0.24368086457252502,
        -0.31120288372039795,
        0.6349920034408569
      ],
      "type": "VEC4"
    },
    {
      "bufferView": 6,
      "byteOffset": 2528,
      "componentType": 5126,
      "count": 80,
      "max": [
        4.583333492279053
      ],
      "min": [
        2.9166667461395264
      ],
      "type": "SCALAR"
    },
    {
      "bufferView": 8,
      "byteOffset": 8960,
      "componentType": 5126,
      "count": 80,
      "max": [
        0.0,
        0.0,
        0.09967847168445587,
        1.0
      ],
      "min": [
        0.0,
        0.0,
        -0.09967850893735886,
        0.9950196743011475
      ],
      "type": "VEC4"
    },
    {
      "bufferView": 6,
      "byteOffset": 2848,
      "componentType": 5126,
      "count": 70,
      "max": [
        4.583333492279053
      ],
      "min": [
        2.9166667461395264
      ],
      "type": "SCALAR"
    },
    {
      "bufferView": 7,
      "byteOffset": 864,
      "componentType": 5126,
      "count": 70,
      "max": [
        2.220446049250313e-16,
        0.3702417314052582,
        1.7797873397285002e-08
      ],
      "min": [
        -2.220446049250313e-16,
        0.3702417314052582,
        1.7797873397285002e-08
      ],
      "type": "VEC3"
    },
    {
      "bufferView": 6,
      "byteOffset": 3128,
      "componentType": 5126,
      "count": 80,
      "max": [
        4.583333492279053
      ],
      "min": [
        2.9166667461395264
      ],
      "type": "SCALAR"
    },
    {
      "bufferView": 8,
      "byteOffset": 10240,
      "componentType": 5126,
      "count": 80,
      "max": [
        0.015506938099861145,
        0.8715912699699402,
        -0.4897909462451935,
        -0.013891934417188168
      ],
      "min": [
        0.0006697062053717673,
        0.8242433667182922,
        -0.5502926707267761,
        -0.13341400027275085
      ],
      "type": "VEC4"
    },
    {
      "bufferView": 6,
      "byteOffset": 3448,
      "componentType": 5126,
      "count": 80,
      "max": [
        4.583333492279053
      ],
      "min": [
        2.9166667461395264
      ],
      "type": "SCALAR"
    },
    {
      "bufferView": 8,
      "byteOffset": 11520,
      "componentType": 5126,
      "count": 80,
      "max": [
        0.008830898441374302,
        0.38254326581954956,
        0.989343523979187,
        -0.021314509212970734
      ],
      "min": [
        7.568174851257936e-07,
        -1.3632482875891583e-07,
        0.9236494898796082,
        -0.15336591005325317
      ],
      "type": "VEC4"
    },
    {
      "bufferView": 6,
      "byteOffset": 3768,
      "componentType": 5126,
      "count": 69,
      "max": [
        4.583333492279053
      ],
      "min": [
        2.9166667461395264
      ],
      "type": "SCALAR"
    },
    {
      "bufferView": 7,
      "byteOffset": 1704,
      "componentType": 5126,
      "count": 69,
      "max": [
        2.220446049250313e-16,
        0.3702417314052582,
        1.7797873397285002e-08
      ],
      "min": [
        -2.220446049250313e-16,
        0.3702417314052582,
        1.7797873397285002e-08
      ],
      "type": "VEC3"
    },
    {
      "bufferView": 6,
      "byteOffset": 4044,
      "componentType": 5126,
      "count": 80,
      "max": [
        4.583333492279053
      ],
      "min": [
        2.9166667461395264
      ],
      "type": "SCALAR"
    },
    {
      "bufferView": 8,
      "byteOffset": 12800,
      "componentType": 5126,
      "count": 80,
      "max": [
        -0.00024990836391225457,
        0.8715912699699402,
        -0.4897909462451935,
        0.13576377928256989
      ],
      "min": [
        -0.015506938099861145,
        0.8241034746170044,
        -0.5502902865409851,
        0.013891934417188168
      ],
      "type": "VEC4"
    },
    {
      "bufferView": 6,
      "byteOffset": 4364,
      "componentType": 5126,
      "count": 80,
      "max": [
        4.583333492279053
      ],
      "min": [
        2.9166667461395264
      ],
      "type": "SCALAR"
    },
    {
      "bufferView": 8,
      "byteOffset": 14080,
      "componentType": 5126,
      "count": 80,
      "max": [
        -7.568174851257936e-07,
        0.38254326581954956,
        0.9905959963798523,
        0.15336591005325317
      ],
      "min": [
        -0.008830898441374302,
        -1.3632482875891583e-07,
        0.9236494898796082,
        0.021314509212970734
      ],
      "type": "VEC4"
    },
    {
      "bufferView": 6,
      "byteOffset": 4684,
      "componentType": 5126,
      "count": 80,
      "max": [
        4.583333492279053
      ],
      "min": [
        2.9166667461395264
      ],
      "type": "SCALAR"
    },
    {
      "bufferView": 7,
      "byteOffset": 2532,
      "componentType": 5126,
      "count": 80,
      "max": [
        0.0,
        5.293955920339377e-23,
        1.5
      ],
      "min": [
        0.0,
        -2.6469779601696886e-23,
        -0.13626191020011902
      ],
      "type": "VEC3"
    }
  ],
  "animations": [
    {
      "channels": [
        {
          "sampler": 0,
          "target": {
            "node": 17,
            "path": "translation"
          }
        },
        {
          "sampler": 1,
          "target": {
            "node": 17,
            "path": "rotation"
          }
        },
        {
          "sampler": 2,
          "target": {
            "node": 22,
            "path": "rotation"
          }
        },
        {
          "sampler": 3,
          "target": {
            "node": 21,
            "path": "rotation"
          }
        },
        {
          "sampler": 4,
          "target": {
            "node": 20,
            "path": "rotation"
          }
        },
        {
          "sampler": 5,
          "target": {
            "node": 27,
            "path": "translation"
          }
        },
        {
          "sampler": 6,
          "target": {
            "node": 27,
            "path": "rotation"
          }
        },
        {
          "sampler": 7,
          "target": {
            "node": 26,
            "path": "rotation"
          }
        },
        {
          "sampler": 8,
          "target": {
            "node": 25,
            "path": "rotation"
          }
        },
        {
          "sampler": 9,
          "target": {
            "node": 16,
            "path": "rotation"
          }
        },
        {
          "sampler": 10,
          "target": {
            "node": 30,
            "path": "translation"
          }
        },
        {
          "sampler": 11,
          "target": {
            "node": 30,
            "path": "rotation"
          }
        },
        {
          "sampler": 12,
          "target": {
            "node": 29,
            "path": "rotation"
          }
        },
        {
          "sampler": 13,
          "target": {
            "node": 39,
            "path": "translation"
          }
        },
        {
          "sampler": 14,
          "target": {
            "node": 39,
            "path": "rotation"
          }
        },
        {
          "sampler": 15,
          "target": {
            "node": 38,
            "path": "rotation"
          }
        },
        {
          "sampler": 16,
          "target": {
            "node": 13,
            "path": "translation"
          }
        }
      ],
      "name": "Scene",
      "samplers": [
        {
          "input": 25,
          "interpolation": "LINEAR",
          "output": 26
        },
        {
          "input": 27,
          "interpolation": "LINEAR",
          "output": 28
        },
        {
          "input": 29,
          "interpolation": "LINEAR",
          "output": 30
        },
        {
          "input": 31,
          "interpolation": "LINEAR",
          "output": 32
        },
        {
          "input": 33,
          "interpolation": "LINEAR",
          "output": 34
        },
        {
          "input": 35,
          "interpolation": "LINEAR",
          "output": 36
        },
        {
          "input": 37,
          "interpolation": "LINEAR",
          "output": 38
        },
        {
          "input": 39,
          "interpolation": "LINEAR",
          "output": 40
        },
        {
          "input": 41,
          "interpolation": "LINEAR",
          "output": 42
        },
        {
          "input": 43,
          "interpolation": "LINEAR",
          "output": 44
        },
        {
          "input": 45,
          "interpolation": "LINEAR",
          "output": 46
        },
        {
          "input": 47,
          "interpolation": "LINEAR",
          "output": 48
        },
        {
          "input": 49,
          "interpolation": "LINEAR",
          "output": 50
        },
        {
          "input": 51,
          "interpolation": "LINEAR",
          "output": 52
        },
        {
          "input": 53,
          "interpolation": "LINEAR",
          "output": 54
        },
        {
          "input": 55,
          "interpolation": "LINEAR",
          "output": 56
        },
        {
          "input": 57,
          "interpolation": "LINEAR",
          "output": 58
        }
      ]
    }
  ],
  "asset": {
    "extras": {
      "author": "SHEEP CODE (https://sketchfab.com/Sheep_Code)",
      "license": "CC-BY-4.0 (http://creativecommons.org/licenses/by/4.0/)",
      "source": "https://sketchfab.com/3d-models/low-poly-monster-b9ac7fbf007c4d6d9071c391b055cca2",
      "title": "LOW POLY MONSTER"
    },
    "generator": "Sketchfab-12.65.0",
    "version": "2.0"
  },
  "bufferViews": [
    {
      "buffer": 0,
      "byteLength": 29728,
      "byteStride": 8,
      "name": "shortBufferViews",
      "target": 34962
    },
    {
      "buffer": 0,
      "byteLength": 22560,
      "byteOffset": 29728,
      "name": "floatBufferViews",
      "target": 34963
    },
    {
      "buffer": 0,
      "byteLength": 29728,
      "byteOffset": 52288,
      "byteStride": 8,
      "name": "floatBufferViews",
      "target": 34962
    },
    {
      "buffer": 0,
      "byteLength": 89184,
      "byteOffset": 82016,
      "byteStride": 12,
      "name": "floatBufferViews",
      "target": 34962
    },
    {
      "buffer": 0,
      "byteLength": 59456,
      "byteOffset": 171200,
      "byteStride": 16,
      "name": "floatBufferViews",
      "target": 34962
    },
    {
      "buffer": 0,
      "byteLength": 2240,
      "byteOffset": 230656,
      "name": "floatBufferViews"
    },
    {
      "buffer": 0,
      "byteLength": 5004,
      "byteOffset": 232896,
      "name": "floatBufferViews"
    },
    {
      "buffer": 0,
      "byteLength": 3492,
      "byteOffset": 237900,
      "byteStride": 12,
      "name": "floatBufferViews"
    },
    {
      "buffer": 0,
      "byteLength": 15360,
      "byteOffset": 241392,
      "byteStride": 16,
      "name": "floatBufferViews"
    }
  ],
  "buffers": [
    {
      "byteLength": 256752,
      "uri": "scene.bin"
    }
  ],
  "images": [
    {
      "uri": "textures/Material_baseColor.png"
    },
    {
      "uri": "textures/Material.001_baseColor.png"
    }
  ],
  "materials": [
    {
      "doubleSided": true,
      "name": "Material",
      "pbrMetallicRoughness": {
        "baseColorTexture": {
          "index": 0
        },
        "metallicFactor": 0.0
      }
    },
    {
      "doubleSided": true,
      "name": "Material.001",
      "pbrMetallicRoughness": {
        "baseColorTexture": {
          "index": 1
        },
        "metallicFactor": 0.0,
        "roughnessFactor": 0.8211145618000169
      }
    },
    {
      "doubleSided": true,
      "name": "preto",
      "pbrMetallicRoughness": {
        "baseColorFactor": [
          0.0,
          0.0,
          0.0,
          1.0
        ],
        "metallicFactor": 0.0
      }
    },
    {
      "doubleSided": true,
      "name": "branco",
      "pbrMetallicRoughness": {
        "baseColorFactor": [
          0.8,
          0.8,
          0.8,
          1.0
        ],
        "metallicFactor": 0.0,
        "roughnessFactor": 0.8211145618000169
      }
    }
  ],
  "meshes": [
    {
      "name": "corpo.001_Material_0",
      "primitives": [
        {
          "attributes": {
            "JOINTS_0": 17,
            "NORMAL": 1,
            "POSITION": 0,
            "TEXCOORD_0": 2,
            "WEIGHTS_0": 18
          },
          "indices": 3,
          "material": 0,
          "mode": 4
        }
      ]
    },
    {
      "name": "corpo.001_Material.001_0",
      "primitives": [
        {
          "attributes": {
            "JOINTS_0": 19,
            "NORMAL": 5,
            "POSITION": 4,
            "TEXCOORD_0": 6,
            "WEIGHTS_0": 20
          },
          "indices": 7,
          "material": 1,
          "mode": 4
        }
      ]
    },
    {
      "name": "corpo.001_preto_0",
      "primitives": [
        {
          "attributes": {
            "JOINTS_0": 21,
            "NORMAL": 9,
            "POSITION": 8,
            "TEXCOORD_0": 10,
            "WEIGHTS_0": 22
          },
          "indices": 11,
          "material": 2,
          "mode": 4
        }
      ]
    },
    {
      "name": "corpo.001_branco_0",
      "primitives": [
        {
          "attributes": {
            "JOINTS_0": 23,
            "NORMAL": 13,
            "POSITION": 12,
            "TEXCOORD_0": 14,
            "WEIGHTS_0": 24
          },
          "indices": 15,
          "material": 3,
          "mode": 4
        }
      ]
    }
  ],
  "nodes": [
    {
      "children": [
        1
      ],
      "matrix": [
        1.0,
        0.0,
        0.0,
        0.0,
        0.0,
        2.220446049250313e-16,
        -1.0,
        0.0,
        0.0,
        1.0,
        2.220446049250313e-16,
        0.0,
        0.0,
        0.0,
        0.0,
        1.0
      ],
      "name": "Sketchfab_model"
    },
    {
      "children": [
        2
      ],
      "matrix": [
        1.0,
        0.0,
        0.0,
        0.0,
        0.0,
        0.0,
        1.0,
        0.0,
        0.0,
        -1.0,
        0.0,
        0.0,
        0.0,
        0.0,
        0.0,
        1.0
      ],
      "name": "61a8424827b64685b2588846bda10618.fbx"
    },
    {
      "children": [
        3
      ],
      "name": "Object_2"
    },
    {
      "children": [
        4,
        5
      ],
      "name": "RootNode"
    },
    {
      "name": "corpo.001",
      "rotation": [
        -0.7071068286895752,
        0.0,
        0.0,
        0.7071067094802856
      ],
      "scale": [
        100.0,
        100.0,
        100.0
      ],
      "translation": [
        0.0,
        230.0,
        0.0
      ]
    },
    {
      "children": [
        6
      ],
      "name": "Armature",
      "rotation": [
        -0.7071068286895752,
        0.0,
        0.0,
        0.7071067094802856
      ],
      "scale": [
        100.0,
        100.0,
        100.0
      ]
    },
    {
      "children": [
        7,
        9,
        10,
        11,
        12,
        8
      ],
      "name": "Object_6"
    },
    {
      "children": [
        13
      ],
      "name": "_rootJoint"
    },
    {
      "matrix": [
        100.0,
        0.0,
        0.0,
        0.0,
        0.0,
        6.123233995736766e-15,
        -100.0,
        0.0,
        0.0,
        100.0,
        6.123233995736766e-15,
        0.0,
        0.0,
        229.99999523162842,
        0.0,
        1.0
      ],
      "name": "Object_8"
    },
    {
      "mesh": 0,
      "name": "Object_9",
      "skin": 0
    },
    {
      "mesh": 1,
      "name": "Object_10",
      "skin": 0
    },
    {
      "mesh": 2,
      "name": "Object_11",
      "skin": 0
    },
    {
      "mesh": 3,
      "name": "Object_12",
      "skin": 0
    },
    {
      "children": [
        14,
        29,
        38
      ],
      "name": "root_01",
      "rotation": [
        0.7071068286895752,
        0.0,
        0.0,
        0.7071067094802856
      ],
      "translation": [
        0.0,
        0.0,
        -0.13626191020011902
      ]
    },
    {
      "children": [
        15
      ],
      "name": "hips_02",
      "translation": [
        0.0,
        1.2999999523162842,
        0.0
      ]
    },
    {
      "children": [
        16
      ],
      "name": "belly_03",
      "translation": [
        0.0,
        0.40000009536743164,
        0.0
      ]
    },
    {
      "children": [
        17,
        19,
        24
      ],
      "name": "chest_04",
      "translation": [
        0.0,
        0.9000000953674316,
        0.0
      ]
    },
    {
      "children": [
        18
      ],
      "name": "head_05",
      "translation": [
        0.0,
        0.5,
        0.0
      ]
    },
    {
      "name": "head_end_00",
      "translation": [
        0.0,
        1.1000001430511475,
        0.0
      ]
    },
    {
      "children": [
        20
      ],
      "name": "shoulder.L_06",
      "rotation": [
        5.338408755051205e-07,
        9.257443878141203e-08,
        -0.7052163481712341,
        0.7089921832084656
      ],
      "translation": [
        0.10000000149011612,
        0.39999985694885254,
        0.0
      ]
    },
    {
      "children": [
        21
      ],
      "name": "arm1.L_07",
      "rotation": [
        -0.14396929740905762,
        0.24368084967136383,
        -0.5185055136680603,
        0.8068732619285583
      ],
      "scale": [
        1.000000238418579,
        1.0000001192092896,
        1.0
      ],
      "translation": [
        0.137260302901268,
        0.6483315229415894,
        0.020496176555752754
      ]
    },
    {
      "children": [
        22
      ],
      "name": "arm2.L_08",
      "rotation": [
        -0.3450111448764801,
        0.7736457586288452,
        0.3812943994998932,
        -0.370208203792572
      ],
      "scale": [
        1.0000001192092896,
        1.0,
        0.9999998211860657
      ],
      "translation": [
        4.470348358154297e-08,
        0.6985459923744202,
        9.313225746154785e-08
      ]
    },
    {
      "children": [
        23
      ],
      "name": "hand.L_09",
      "rotation": [
        -0.1563289612531662,
        -0.05399082228541374,
        -0.1794283241033554,
        0.9697690010070801
      ],
      "scale": [
        0.9999999403953552,
        1.0,
        1.0000001192092896
      ],
      "translation": [
        -7.450580596923828e-08,
        1.1254019737243652,
        1.7136335372924805e-07
      ]
    },
    {
      "name": "hand.L_end_026",
      "rotation": [
        -1.3877787807814457e-17,
        6.938893903907228e-18,
        2.7755575615628914e-17,
        1.0
      ],
      "translation": [
        0.0,
        0.3994732201099396,
        2.220446049250313e-16
      ]
    },
    {
      "children": [
        25
      ],
      "name": "shoulder.R_010",
      "rotation": [
        5.338408755051205e-07,
        -9.257443878141203e-08,
        0.7052163481712341,
        0.7089921832084656
      ],
      "translation": [
        -0.10000000149011612,
        0.39999985694885254,
        0.0
      ]
    },
    {
      "children": [
        26
      ],
      "name": "arm1.R_011",
      "rotation": [
        -0.14396922290325165,
        -0.24368086457252502,
        0.5185055136680603,
        0.8068732619285583
      ],
      "scale": [
        1.0000001192092896,
        1.0,
        1.0
      ],
      "translation": [
        -0.137260302901268,
        0.6483315229415894,
        0.020496176555752754
      ]
    },
    {
      "children": [
        27
      ],
      "name": "arm2.R_012",
      "rotation": [
        0.34501126408576965,
        0.7736458778381348,
        0.38129428029060364,
        0.3702082931995392
      ],
      "scale": [
        0.9999998211860657,
        0.9999998211860657,
        0.9999998807907104
      ],
      "translation": [
        1.2665987014770508e-07,
        0.6985457539558411,
        7.264316082000732e-08
      ]
    },
    {
      "children": [
        28
      ],
      "name": "hand.R_013",
      "rotation": [
        -0.1563289314508438,
        0.053990863263607025,
        0.17942839860916138,
        0.9697690010070801
      ],
      "scale": [
        0.9999998807907104,
        0.9999999403953552,
        0.9999999403953552
      ],
      "translation": [
        -1.4901161193847656e-08,
        1.1254017353057861,
        -7.450580596923828e-08
      ]
    },
    {
      "name": "hand.R_end_027",
      "rotation": [
        -1.3877787807814457e-17,
        3.851859888774472e-34,
        -2.7755575615628914e-17,
        1.0
      ],
      "translation": [
        0.0,
        0.3994732201099396,
        0.0
      ]
    },
    {
      "children": [
        30
      ],
      "name": "leg1.L_014",
      "rotation": [
        0.008830889128148556,
        0.38254326581954956,
        0.9236494898796082,
        -0.021314533427357674
      ],
      "scale": [
        1.0000663995742798,
        1.0000001192092896,
        1.0
      ],
      "translation": [
        0.5316784381866455,
        1.100000023841858,
        0.0
      ]
    },
    {
      "children": [
        31
      ],
      "name": "leg2.L_015",
      "rotation": [
        0.015506944619119167,
        0.8715913891792297,
        -0.48979100584983826,
        -0.01389192696660757
      ],
      "scale": [
        0.9999999403953552,
        0.9999998211860657,
        0.9999998807907104
      ],
      "translation": [
        1.1102230246251565e-16,
        0.3702417314052582,
        1.7797873397285002e-08
      ]
    },
    {
      "children": [
        32,
        34,
        36
      ],
      "name": "foot.L_016",
      "rotation": [
        0.006497885100543499,
        -0.6495844721794128,
        0.7602615356445313,
        -0.00043414306128397584
      ],
      "scale": [
        0.9999998807907104,
        0.9999997019767761,
        0.9999998211860657
      ],
      "translation": [
        2.412707544863224e-08,
        0.6102584600448608,
        -2.3376173885480966e-08
      ]
    },
    {
      "children": [
        33
      ],
      "name": "ThumbM.L_017",
      "rotation": [
        0.05838001146912575,
        0.00027310458244755864,
        0.004707757383584976,
        0.9982833862304688
      ],
      "scale": [
        0.9999999403953552,
        1.0,
        0.9999999403953552
      ],
      "translation": [
        -0.000623007130343467,
        0.5480806231498718,
        0.0054363529197871685
      ]
    },
    {
      "name": "ThumbM.L_end_028",
      "rotation": [
        3.469446951953614e-18,
        -1.0058516248644817e-21,
        8.470329472543003e-22,
        1.0
      ],
      "translation": [
        0.0,
        0.28484487533569336,
        6.938893903907228e-18
      ]
    },
    {
      "children": [
        35
      ],
      "name": "ThumbR.L_018",
      "rotation": [
        0.05838002264499664,
        0.0002723919169511646,
        0.004707693122327328,
        0.9982833862304688
      ],
      "scale": [
        0.9999999403953552,
        1.0,
        1.0
      ],
      "translation": [
        -0.262111634016037,
        0.4288395047187805,
        -0.004174887202680111
      ]
    },
    {
      "name": "ThumbR.L_end_029",
      "rotation": [
        -3.469446951953614e-18,
        1.3234889800848443e-22,
        4.5917748078995606e-40,
        1.0
      ],
      "translation": [
        0.0,
        0.28484487533569336,
        0.0
      ]
    },
    {
      "children": [
        37
      ],
      "name": "ThumbL.L_019",
      "rotation": [
        0.05838000774383545,
        0.0002721538476180285,
        0.0047076791524887085,
        0.9982833862304688
      ],
      "scale": [
        0.9999999403953552,
        0.9999999403953552,
        1.0
      ],
      "translation": [
        0.29102906584739685,
        0.43405666947364807,
        -0.004173676948994398
      ]
    },
    {
      "name": "ThumbL.L_end_030",
      "rotation": [
        3.469446951953614e-18,
        3.970466940254533e-22,
        -8.470329472543003e-22,
        1.0
      ],
      "translation": [
        0.0,
        0.28484487533569336,
        -6.938893903907228e-18
      ]
    },
    {
      "children": [
        39
      ],
      "name": "leg1.R_020",
      "rotation": [
        -0.008830889128148556,
        0.38254326581954956,
        0.9236494898796082,
        0.021314533427357674
      ],
      "scale": [
        1.0000663995742798,
        1.0000001192092896,
        1.0
      ],
      "translation": [
        -0.5316784381866455,
        1.100000023841858,
        0.0
      ]
    },
    {
      "children": [
        40
      ],
      "name": "leg2.R_021",
      "rotation": [
        -0.015506944619119167,
        0.8715913891792297,
        -0.48979100584983826,
        0.01389192696660757
      ],
      "scale": [
        0.9999999403953552,
        0.9999998211860657,
        0.9999998807907104
      ],
      "translation": [
        -1.1102230246251565e-16,
        0.3702417314052582,
        1.7797873397285002e-08
      ]
    },
    {
      "children": [
        41,
        43,
        45
      ],
      "name": "foot.R_022",
      "rotation": [
        -0.006497885100543499,
        -0.6495844721794128,
        0.7602615356445313,
        0.00043414306128397584
      ],
      "scale": [
        0.9999998807907104,
        0.9999997019767761,
        0.9999998211860657
      ],
      "translation": [
        -2.412707544863224e-08,
        0.6102584600448608,
        -2.3376173885480966e-08
      ]
    },
    {
      "children": [
        42
      ],
      "name": "ThumbM.R_023",
      "rotation": [
        0.05838001146912575,
        -0.00027310458244755864,
        -0.004707757383584976,
        0.9982833862304688
      ],
      "scale": [
        0.9999999403953552,
        1.0,
        0.9999999403953552
      ],
      "translation": [
        0.000623007130343467,
        0.5480806231498718,
        0.0054363529197871685
      ]
    },
    {
      "name": "ThumbM.R_end_031",
      "rotation": [
        3.469446951953614e-18,
        1.0058516248644817e-21,
        -8.470329472543003e-22,
        1.0
      ],
      "translation": [
        0.0,
        0.28484487533569336,
        6.938893903907228e-18
      ]
    },
    {
      "children": [
        44
      ],
      "name": "ThumbL.R_024",
      "rotation": [
        0.05838002264499664,
        -0.0002723919169511646,
        -0.004707693122327328,
        0.9982833862304688
      ],
      "scale": [
        0.9999999403953552,
        1.0,
        1.0
      ],
      "translation": [
        0.262111634016037,
        0.4288395047187805,
        -0.004174887202680111
      ]
    },
    {
      "name": "ThumbL.R_end_032",
      "rotation": [
        -3.469446951953614e-18,
        -1.3234889800848443e-22,
        -4.5917748078995606e-40,
        1.0
      ],
      "translation": [
        0.0,
        0.28484487533569336,
        0.0
      ]
    },
    {
      "children": [
        46
      ],
      "name": "ThumbR.R_025",
      "rotation": [
        0.05838000774383545,
        -0.0002721538476180285,
        -0.0047076791524887085,
        0.9982833862304688
      ],
      "scale": [
        0.9999999403953552,
        0.9999999403953552,
        1.0
      ],
      "translation": [
        -0.29102906584739685,
        0.43405666947364807,
        -0.004173676948994398
      ]
    },
    {
      "name": "ThumbR.R_end_033",
      "rotation": [
        3.469446951953614e-18,
        -3.970466940254533e-22,
        8.470329472543003e-22,
        1.0
      ],
      "translation": [
        0.0,
        0.28484487533569336,
        -6.938893903907228e-18
      ]
    }
  ],
  "samplers": [
    {
      "magFilter": 9729,
      "minFilter": 9987,
      "wrapS": 10497,
      "wrapT": 10497
    }
  ],
  "scene": 0,
  "scenes": [
    {
      "name": "Sketchfab_Scene",
      "nodes": [
        0
      ]
    }
  ],
  "skins": [
    {
      "inverseBindMatrices": 16,
      "joints": [
        7,
        13,
        14,
        15,
        16,
        17,
        18,
        19,
        20,
        21,
        22,
        23,
        24,
        25,
        26,
        27,
        28,
        29,
        30,
        31,
        32,
        33,
        34,
        35,
        36,
        37,
        38,
        39,
        40,
        41,
        42,
        43,
        44,
        45,
        46
      ],
      "skeleton": 7
    }
  ],
  "textures": [
    {
      "sampler": 0,
      "source": 0
    },
    {
      "sampler": 0,
      "source": 1
    }
  ]
}
